<svg width="891" height="505" viewBox="0 0 891 505" fill="none" xmlns="http://www.w3.org/2000/svg">
<g clip-path="url(#clip0_0_1)">
<rect width="890.215" height="504.948" fill="white"/>
<path d="M889.215 0.999939H374.69V335.285H889.215V0.999939Z" fill="white"/>
<path d="M890.215 336.285H373.69V0H890.215V336.285ZM375.69 334.285H888.215V2H375.69V334.285Z" fill="#E4E4E4"/>
<path d="M599.617 33.695C614.73 33.9531 614.728 56.4332 599.617 56.6891C584.504 56.431 584.507 33.9509 599.617 33.695Z" fill="#3F3D56"/>
<path d="M631.952 33.695C647.065 33.9531 647.063 56.4332 631.952 56.6891C616.84 56.431 616.842 33.9509 631.952 33.695Z" fill="#512C55"/>
<path d="M664.288 33.695C679.401 33.9531 679.398 56.4332 664.287 56.6891C649.175 56.431 649.177 33.9509 664.288 33.695Z" fill="#CACACA"/>
<path d="M566.468 121.727H463.562V122.974H566.468V121.727Z" fill="#CACACA"/>
<path d="M800.966 302.59H659.394V170.373H800.966V302.59ZM660.641 301.343H799.718V171.62H660.641L660.641 301.343Z" fill="#CACACA"/>
<path d="M660.443 170.54L659.592 171.452L799.917 302.423L800.768 301.51L660.443 170.54Z" fill="#CACACA"/>
<path d="M799.92 170.544L659.589 301.507L660.44 302.419L800.771 171.456L799.92 170.544Z" fill="#CACACA"/>
<path d="M800.966 104.264H462.939V81.1885H800.966V104.264ZM464.186 103.017H799.719V82.4359H464.186V103.017Z" fill="#CACACA"/>
<path d="M587.966 206.264H463.939V183.189H587.966V206.264ZM465.186 205.017H586.719V184.436H465.186V205.017Z" fill="#CACACA"/>
<path d="M587.966 245.264H463.939V222.189H587.966V245.264ZM465.186 244.017H586.719V223.436H465.186V244.017Z" fill="#CACACA"/>
<path d="M587.966 284.264H463.939V261.189H587.966V284.264ZM465.186 283.017H586.719V262.436H465.186V283.017Z" fill="#CACACA"/>
<path d="M496.42 150.32H463.155C465.723 139.986 465.413 128.807 463.155 117.055H496.42C494.117 122.298 492.928 127.961 492.928 133.688C492.928 139.414 494.117 145.078 496.42 150.32Z" fill="#512C55"/>
<path d="M488.356 124.111H468.195V128.143H488.356V124.111Z" fill="white"/>
<path d="M488.356 132.176H468.195V136.208H488.356V132.176Z" fill="white"/>
<path d="M488.356 140.24H468.195V144.272H488.356V140.24Z" fill="white"/>
<path d="M746.927 200.557H713.662C716.23 190.223 715.92 179.044 713.662 167.292H746.927C744.624 172.535 743.434 178.199 743.434 183.925C743.434 189.651 744.624 195.315 746.927 200.557Z" fill="#512C55"/>
<path d="M738.862 174.348H718.702V178.381H738.862V174.348Z" fill="white"/>
<path d="M738.862 182.413H718.702V186.445H738.862V182.413Z" fill="white"/>
<path d="M738.862 190.477H718.702V194.509H738.862V190.477Z" fill="white"/>
<path d="M789.696 129.275H756.431C758.999 118.941 758.689 107.761 756.431 96.0098H789.696C787.393 101.252 786.204 106.916 786.204 112.642C786.204 118.369 787.393 124.032 789.696 129.275Z" fill="#512C55"/>
<path d="M781.632 103.066H761.471V107.098H781.632V103.066Z" fill="white"/>
<path d="M781.632 111.13H761.471V115.162H781.632V111.13Z" fill="white"/>
<path d="M781.632 119.195H761.471V123.227H781.632V119.195Z" fill="white"/>
<path d="M206.599 153.448H149.599V122.948C149.599 115.39 152.601 108.14 157.946 102.796C163.291 97.4509 170.54 94.4482 178.099 94.4482C185.657 94.4482 192.906 97.4509 198.251 102.796C203.596 108.14 206.599 115.39 206.599 122.948V153.448Z" fill="#2F2E41"/>
<path d="M232.043 492.792H244.302L250.135 445.504L232.041 445.505L232.043 492.792Z" fill="#FFB6B6"/>
<path d="M228.916 488.789L253.06 488.789C257.14 488.789 261.055 490.41 263.94 493.295C266.826 496.181 268.447 500.094 268.447 504.175V504.675L228.916 504.676L228.916 488.789Z" fill="#2F2E41"/>
<path d="M85.4888 476.431L96.1648 482.458L124.493 444.147L108.736 435.252L85.4888 476.431Z" fill="#FFB6B6"/>
<path d="M84.7337 471.408L105.759 483.277C109.312 485.284 111.924 488.62 113.018 492.551C114.112 496.482 113.6 500.687 111.594 504.241L111.348 504.676L76.9238 485.243L84.7337 471.408Z" fill="#2F2E41"/>
<path d="M163.843 280.121L162.897 284.851C162.897 284.851 160.058 287.689 161.478 289.109C162.897 290.528 162.424 297.15 162.424 297.15C161.63 309.226 145.851 377.086 143.029 390.34C143.029 390.34 121.269 404.531 104.239 432.44C87.2099 460.35 86.7368 467.446 86.7368 467.446L105.659 475.487L152.963 418.249C152.963 418.249 166.208 410.207 170.938 403.112C175.669 396.016 204.997 322.695 204.997 322.695L221.554 399.327C221.554 399.327 220.608 427.237 224.865 445.213C227.483 456.557 229.066 468.115 229.596 479.745L251.829 477.379C251.829 477.379 250.41 410.207 248.044 403.112C248.044 403.112 257.978 321.275 238.11 288.635L222.099 245.948L206.417 239.912L163.843 280.121Z" fill="#2F2E41"/>
<path d="M177.806 101.904C207.653 102.414 207.648 146.81 177.805 147.316C147.959 146.806 147.964 102.409 177.806 101.904Z" fill="#FFB8B8"/>
<path d="M200.775 123.432H195.703L194.321 119.978L195.012 123.432H167.268L168.171 116.205L161.427 123.432H154.699V119.516C154.694 116.487 155.285 113.486 156.441 110.686C157.596 107.886 159.292 105.341 161.432 103.198C163.572 101.054 166.113 99.3529 168.911 98.1924C171.709 97.032 174.708 96.4347 177.737 96.4347C180.766 96.4347 183.765 97.032 186.563 98.1924C189.361 99.3529 191.903 101.054 194.043 103.198C196.183 105.341 197.879 107.886 199.034 110.686C200.189 113.486 200.781 116.487 200.775 119.516V123.432Z" fill="#2F2E41"/>
<path d="M208.582 160.579L152.177 161.035L164.099 281.948C164.099 281.948 230.058 278.467 230.099 258.334L223.919 240.443L208.582 160.579Z" fill="#E4E4E4"/>
<path d="M313.553 371.56L116.931 412.277C114.921 412.688 112.602 409.694 111.747 405.581L91.0809 305.785C90.2293 301.672 91.171 298.004 93.1792 297.581L289.801 256.863C291.811 256.452 294.13 259.446 294.984 263.559L315.651 363.355C316.5 367.468 315.559 371.139 313.553 371.56Z" fill="white"/>
<path d="M164.595 341.556C174.293 341.556 182.154 333.695 182.154 323.998C182.154 314.301 174.293 306.439 164.595 306.439C154.898 306.439 147.037 314.301 147.037 323.998C147.037 333.695 154.898 341.556 164.595 341.556Z" fill="#F0F0F0"/>
<path d="M229.484 365.815L145.139 383.282C145.034 383.305 144.927 383.318 144.819 383.321L170.403 305.964C170.557 305.483 170.836 305.051 171.212 304.714C171.587 304.376 172.046 304.144 172.54 304.042C173.035 303.939 173.548 303.97 174.026 304.131C174.505 304.292 174.933 304.577 175.265 304.957L211.639 345.782L213.382 347.735L229.484 365.815Z" fill="#E4E4E4"/>
<path d="M276.445 356.091L203.493 371.198L213.377 347.738L214.087 346.049L226.967 315.475C227.208 314.998 227.547 314.577 227.961 314.24C228.376 313.902 228.856 313.656 229.372 313.517C229.888 313.377 230.427 313.348 230.955 313.431C231.483 313.514 231.987 313.707 232.436 313.998C232.553 314.082 232.664 314.174 232.769 314.273L276.445 356.091Z" fill="#E4E4E4"/>
<path d="M313.553 371.56L116.931 412.277C114.921 412.688 112.602 409.694 111.747 405.581L91.0809 305.785C90.2293 301.672 91.171 298.004 93.1792 297.581L289.801 256.863C291.811 256.452 294.13 259.446 294.984 263.559L315.651 363.355C316.5 367.468 315.559 371.139 313.553 371.56ZM93.7963 300.561C92.5901 300.811 92.0278 303.016 92.537 305.483L113.203 405.279C113.714 407.746 115.107 409.544 116.314 409.296L312.935 368.579C314.142 368.329 314.704 366.125 314.195 363.656L293.528 263.861C293.017 261.394 291.625 259.596 290.418 259.843L93.7963 300.561Z" fill="#CACACA"/>
<path d="M255.38 279.19C254.139 278.607 253.041 277.76 252.163 276.707C251.285 275.654 250.648 274.422 250.298 273.097C249.948 271.771 249.893 270.385 250.136 269.036C250.379 267.687 250.916 266.408 251.707 265.288L240.285 247.159L249.609 237.53L265.38 263.359C267.172 264.813 268.369 266.874 268.744 269.152C269.118 271.429 268.644 273.765 267.411 275.716C266.179 277.667 264.273 279.099 262.056 279.739C259.838 280.379 257.463 280.184 255.38 279.19Z" fill="#FFB6B6"/>
<path d="M199.916 165.341L208.099 159.948C208.099 159.948 214.413 161.364 221.13 174.282C227.846 187.201 254.931 244.954 254.931 244.954L243.798 256.257L214.099 210.948L199.916 165.341Z" fill="#E4E4E4"/>
<path d="M149.763 293.637C150.63 292.575 151.253 291.336 151.589 290.007C151.925 288.678 151.965 287.291 151.707 285.945C151.449 284.599 150.899 283.325 150.096 282.214C149.293 281.104 148.256 280.182 147.058 279.516L149.509 258.228L136.936 253.584L133.897 283.694C132.91 285.781 132.723 288.157 133.372 290.372C134.02 292.587 135.458 294.488 137.414 295.713C139.369 296.939 141.707 297.404 143.983 297.022C146.259 296.639 148.315 295.435 149.763 293.637Z" fill="#FFB6B6"/>
<path d="M159.599 171.448L152.177 161.075C152.177 161.075 147.099 159.948 141.099 166.948C135.099 173.948 131.599 261.448 131.599 261.448L153.599 266.448L166.599 204.448L159.599 171.448Z" fill="#E4E4E4"/>
<path d="M382 504.948H1C0.734784 504.948 0.480429 504.843 0.292892 504.655C0.105356 504.468 0 504.213 0 503.948C0 503.683 0.105356 503.429 0.292892 503.241C0.480429 503.054 0.734784 502.948 1 502.948H382C382.265 502.948 382.52 503.054 382.707 503.241C382.895 503.429 383 503.683 383 503.948C383 504.213 382.895 504.468 382.707 504.655C382.52 504.843 382.265 504.948 382 504.948Z" fill="#CACACA"/>
<path d="M136.854 324L104.315 330.909C104.68 320.267 102.055 309.395 97.4058 298.369L129.946 291.46C128.781 297.067 128.794 302.854 129.984 308.455C131.173 314.057 133.513 319.35 136.854 324Z" fill="#512C55"/>
<path d="M123.522 300.037L103.801 304.225L104.639 308.169L124.36 303.982L123.522 300.037Z" fill="white"/>
<path d="M125.197 307.926L105.476 312.113L106.314 316.057L126.035 311.87L125.197 307.926Z" fill="white"/>
<path d="M126.872 315.814L107.151 320.001L107.989 323.946L127.71 319.758L126.872 315.814Z" fill="white"/>
</g>
<defs>
<clipPath id="clip0_0_1">
<rect width="890.215" height="504.948" fill="white"/>
</clipPath>
</defs>
</svg>
