<svg width="698" height="410" viewBox="0 0 698 410" fill="none" xmlns="http://www.w3.org/2000/svg">
<rect width="698" height="410" fill="#1E1E1E"/>
<g clip-path="url(#clip0_0_1)">
<rect width="697.28" height="410" fill="white"/>
<path d="M675.063 347.271C668.385 370.437 648.887 386.654 628.548 400.429C625.708 402.353 622.867 404.233 620.026 406.068C620.006 406.076 619.987 406.094 619.967 406.103C619.83 406.191 619.693 406.279 619.566 406.367C618.98 406.745 618.393 407.124 617.811 407.497L618.131 407.641C618.131 407.641 618.444 407.808 618.101 407.667C617.999 407.625 617.892 407.586 617.79 407.543C605.974 402.778 593.949 397.661 584.894 388.734C575.501 379.464 570.011 364.924 575.098 352.745C575.766 351.15 576.611 349.634 577.615 348.226C578.028 347.636 578.472 347.071 578.935 346.516C581.741 343.092 585.408 340.477 589.559 338.939C593.71 337.402 598.196 336.999 602.556 337.77C606.915 338.541 610.99 340.459 614.362 343.328C617.734 346.196 620.281 349.911 621.741 354.09C623.235 340.177 611.764 328.523 600.723 319.924C589.678 311.33 577.128 301.97 574.993 288.135C573.8 280.437 576.477 272.977 581.353 266.988C581.504 266.806 581.655 266.625 581.811 266.448C587.746 259.473 596.095 254.994 605.189 253.906C622.125 252.145 638.576 261.11 650.88 272.885C670.682 291.831 682.654 320.932 675.063 347.271Z" fill="#F2F2F2"/>
<path d="M643.229 316.971C646.479 322.028 648.975 327.532 650.637 333.309C652.042 338.473 652.668 343.817 652.493 349.166C652.039 360.172 648.949 370.908 643.483 380.472C639.365 387.727 634.347 394.433 628.548 400.429C625.708 402.353 622.867 404.233 620.026 406.068C620.006 406.076 619.987 406.094 619.967 406.103C619.83 406.191 619.693 406.279 619.566 406.367C618.979 406.745 618.393 407.124 617.811 407.497C617.811 407.497 618.444 407.808 618.101 407.667C617.999 407.625 617.892 407.586 617.79 407.543C618.849 398.861 617.812 390.051 614.765 381.853C611.718 373.654 606.75 366.305 600.278 360.421C593.79 354.627 586.025 350.449 577.615 348.226C578.028 347.636 578.472 347.071 578.935 346.516C582.183 347.427 585.344 348.623 588.381 350.091C599.238 355.304 608.128 363.875 613.735 374.535C618.767 384.214 620.932 395.128 619.977 405.995C620.463 405.555 620.949 405.105 621.42 404.66C630.399 396.289 638.374 386.681 643.771 375.592C648.453 366.201 650.754 355.803 650.472 345.313C650.031 333.876 645.474 323.281 638.876 314.059C631.644 304.219 623.101 295.414 613.484 287.89C603.792 280.127 593.187 273.579 581.904 268.393C581.65 268.274 581.451 268.062 581.348 267.801C581.246 267.539 581.248 267.248 581.354 266.988C581.429 266.755 581.593 266.56 581.811 266.448C581.923 266.399 582.044 266.377 582.166 266.382C582.288 266.387 582.407 266.42 582.514 266.477C583.907 267.119 585.291 267.769 586.663 268.447C598.093 274.096 608.776 281.144 618.468 289.427C627.83 297.409 636.643 306.528 643.229 316.971Z" fill="white"/>
<path d="M404.389 209.912C405.771 209.411 407.026 208.613 408.067 207.574C409.107 206.535 409.907 205.281 410.41 203.9C410.913 202.518 411.107 201.043 410.979 199.579C410.85 198.115 410.402 196.696 409.666 195.424L433.025 168.38L414.61 165.983L395.252 192.032C393.196 193.41 391.717 195.494 391.095 197.89C390.473 200.286 390.752 202.826 391.878 205.03C393.005 207.234 394.9 208.948 397.206 209.848C399.512 210.748 402.068 210.771 404.389 209.912Z" fill="#FFB8B8"/>
<path d="M536.053 215.626C537.022 214.521 537.737 213.217 538.148 211.805C538.558 210.393 538.654 208.909 538.429 207.456C538.204 206.003 537.663 204.618 536.844 203.397C536.025 202.176 534.949 201.149 533.691 200.389L541.116 165.434L523.827 172.213L519.427 204.367C518.29 206.566 518 209.105 518.61 211.504C519.221 213.903 520.69 215.994 522.739 217.382C524.789 218.769 527.276 219.357 529.73 219.034C532.183 218.71 534.433 217.498 536.053 215.626Z" fill="#FFB8B8"/>
<path d="M452.389 397.799L440.129 397.798L434.297 350.51L452.391 350.511L452.389 397.799Z" fill="#FFB8B8"/>
<path d="M455.515 409.683L415.985 409.681V409.181C415.985 407.161 416.383 405.16 417.156 403.293C417.929 401.426 419.063 399.73 420.491 398.301C421.92 396.873 423.616 395.739 425.483 394.966C427.35 394.193 429.351 393.795 431.371 393.795L455.516 393.796L455.515 409.683Z" fill="#2F2E41"/>
<path d="M512.389 397.799L500.129 397.798L494.297 350.51L512.391 350.511L512.389 397.799Z" fill="#FFB8B8"/>
<path d="M515.515 409.683L475.985 409.681V409.181C475.985 407.161 476.383 405.16 477.156 403.293C477.929 401.426 479.063 399.73 480.491 398.301C481.92 396.873 483.616 395.739 485.483 394.966C487.35 394.193 489.351 393.795 491.371 393.795L515.516 393.796L515.515 409.683Z" fill="#2F2E41"/>
<path d="M453.666 373.106L436.312 372.412C435.128 372.361 434.011 371.846 433.204 370.979C432.396 370.113 431.961 368.963 431.994 367.778L436.883 207.399L437.202 207.284C467.619 196.281 492.781 197.113 514.128 209.824L514.367 209.967L517.296 366.169C517.308 366.767 517.2 367.361 516.979 367.917C516.757 368.473 516.428 368.979 516.009 369.406C515.59 369.833 515.09 370.172 514.539 370.403C513.987 370.635 513.395 370.754 512.797 370.754H498.163C497.12 370.752 496.111 370.389 495.306 369.727C494.501 369.065 493.95 368.144 493.747 367.122L473.812 265.713C473.743 265.362 473.552 265.048 473.272 264.826C472.992 264.604 472.642 264.49 472.285 264.503C471.928 264.516 471.588 264.656 471.325 264.898C471.062 265.14 470.894 265.468 470.851 265.822L458.313 369.152C458.175 370.242 457.646 371.244 456.824 371.972C456.001 372.7 454.942 373.104 453.844 373.109C453.785 373.109 453.726 373.108 453.666 373.106Z" fill="#2F2E41"/>
<path d="M470.55 66.7519C484.114 66.7519 495.111 55.7555 495.111 42.1909C495.111 28.6262 484.114 17.6298 470.55 17.6298C456.985 17.6298 445.989 28.6262 445.989 42.1909C445.989 55.7555 456.985 66.7519 470.55 66.7519Z" fill="#FFB8B8"/>
<path d="M412.689 190.39C411.837 190.054 411.108 189.466 410.599 188.704L405.853 181.603C405.341 180.833 405.078 179.924 405.099 178.999C405.12 178.075 405.425 177.179 405.972 176.433L425.104 150.466L437.09 92.9546C437.779 91.1784 438.811 89.5555 440.128 88.1787C441.445 86.8019 443.02 85.6981 444.764 84.9306C446.508 84.163 448.385 83.7466 450.29 83.7053C452.195 83.664 454.089 83.9986 455.864 84.6899C457.64 85.3812 459.261 86.4156 460.637 87.7341C462.012 89.0525 463.114 90.6292 463.879 92.3738C464.645 94.1184 465.059 95.9968 465.098 97.9015C465.137 99.8063 464.8 101.7 464.107 103.475L458.442 140.076C456.724 151.185 451.03 161.292 442.418 168.517L417.233 189.651C416.748 190.057 416.184 190.357 415.576 190.531C414.968 190.704 414.331 190.748 413.705 190.659C413.357 190.61 413.016 190.519 412.689 190.39Z" fill="#512C55"/>
<path d="M535.004 192.996C534.142 193.306 533.207 193.347 532.321 193.112L524.067 190.917C523.174 190.677 522.376 190.169 521.781 189.461C521.186 188.753 520.823 187.879 520.74 186.958L517.944 154.825L488.942 103.736C488.287 101.947 487.99 100.047 488.069 98.144C488.148 96.2408 488.601 94.3718 489.403 92.644C490.205 90.9161 491.34 89.3632 492.742 88.074C494.144 86.7848 495.787 85.7847 497.576 85.1307C499.365 84.4767 501.265 84.1817 503.168 84.2626C505.072 84.3434 506.94 84.7986 508.667 85.602C510.394 86.4054 511.946 87.5414 513.234 88.9449C514.522 90.3484 515.521 91.992 516.173 93.7816L536.104 124.999C542.155 134.472 544.558 145.821 542.868 156.935L537.927 189.439C537.832 190.064 537.606 190.662 537.264 191.194C536.923 191.726 536.473 192.18 535.944 192.527C535.651 192.719 535.335 192.877 535.004 192.996Z" fill="#512C55"/>
<path d="M443.685 85.8081C447.904 81.1818 453.107 77.5616 458.912 75.2148C464.716 72.8679 470.973 71.8543 477.222 72.2485C477.633 72.2739 478.042 72.3026 478.449 72.3345C484.371 72.8027 490.126 74.53 495.327 77.4007C500.528 80.2715 505.057 84.2196 508.609 88.981C512.221 93.809 514.761 99.3524 516.059 105.241C517.356 111.129 517.382 117.226 516.134 123.126C511.372 145.67 512.577 169.066 519.631 191.002L526.22 211.461C526.431 212.116 526.489 212.811 526.389 213.493C526.289 214.174 526.034 214.824 525.643 215.391C525.253 215.959 524.737 216.429 524.136 216.765C523.536 217.102 522.865 217.296 522.178 217.333L488.493 219.144L479.872 204.254V219.607L438.931 221.808C438.85 221.813 438.769 221.815 438.688 221.815C438.067 221.815 437.453 221.686 436.884 221.437C436.315 221.187 435.803 220.823 435.382 220.366C434.961 219.909 434.639 219.37 434.436 218.783C434.233 218.196 434.155 217.573 434.204 216.954L438.832 159.572L433.028 120.599C432.088 114.372 432.558 108.014 434.402 101.992C436.247 95.9712 439.419 90.4405 443.685 85.8081Z" fill="#512C55"/>
<path d="M487.619 65.6378C485.345 66.9463 476.357 67.8139 475.717 65.2696L475.703 65.2137C475.257 63.3496 475.627 61.403 475.755 59.4906C475.883 57.5782 475.696 55.4773 474.394 54.0712C471.966 51.4501 467.646 52.8396 464.135 52.1768C462.079 51.7178 460.26 50.5251 459.019 48.822C457.779 47.1189 457.201 45.022 457.395 42.9239C457.445 42.5264 457.523 42.1285 457.611 41.7308C457.831 40.7231 457.814 39.6783 457.562 38.6783C457.31 37.6783 456.829 36.7503 456.158 35.9673C455.487 35.1843 454.643 34.5675 453.694 34.1653C452.744 33.7632 451.714 33.5866 450.685 33.6495C447.137 33.8524 443.307 34.9274 440.371 32.2993C438.101 30.2671 437.547 24.977 438.544 22.098C440.221 17.2597 450.958 14.7268 455.646 13.3343C461.445 11.659 467.543 11.2968 473.499 12.2741C479.455 13.2514 485.118 15.5435 490.077 18.9839C493.038 21.0711 495.803 23.6937 497.065 27.0897C498.328 30.4856 497.719 34.7699 494.873 37.0117C497.079 39.3474 498.632 42.2218 499.377 45.347C500.123 48.4721 500.033 51.7383 499.119 54.8181C497.713 59.3476 491.004 63.6902 487.619 65.6378Z" fill="#2F2E41"/>
<path d="M266 138H45C44.7348 138 44.4804 137.895 44.2929 137.707C44.1054 137.52 44 137.265 44 137C44 136.735 44.1054 136.48 44.2929 136.293C44.4804 136.105 44.7348 136 45 136H266C266.265 136 266.52 136.105 266.707 136.293C266.895 136.48 267 136.735 267 137C267 137.265 266.895 137.52 266.707 137.707C266.52 137.895 266.265 138 266 138Z" fill="#E6E6E6"/>
<path d="M217.598 138H92C91.7348 138 91.4804 137.895 91.2929 137.707C91.1054 137.52 91 137.265 91 137C91 136.735 91.1054 136.48 91.2929 136.293C91.4804 136.105 91.7348 136 92 136H217.598C217.864 136 218.118 136.105 218.306 136.293C218.493 136.48 218.598 136.735 218.598 137C218.598 137.265 218.493 137.52 218.306 137.707C218.118 137.895 217.864 138 217.598 138Z" fill="#3F3D56"/>
<path d="M156 138C155.735 138 155.48 137.895 155.293 137.707C155.105 137.52 155 137.265 155 137V74C155 73.7348 155.105 73.4804 155.293 73.2929C155.48 73.1054 155.735 73 156 73C156.265 73 156.52 73.1054 156.707 73.2929C156.895 73.4804 157 73.7348 157 74V137C157 137.265 156.895 137.52 156.707 137.707C156.52 137.895 156.265 138 156 138Z" fill="#3F3D56"/>
<path d="M219 138C218.735 138 218.48 137.895 218.293 137.707C218.105 137.52 218 137.265 218 137V11C218 10.7348 218.105 10.4804 218.293 10.2929C218.48 10.1054 218.735 10 219 10C219.265 10 219.52 10.1054 219.707 10.2929C219.895 10.4804 220 10.7348 220 11V137C220 137.265 219.895 137.52 219.707 137.707C219.52 137.895 219.265 138 219 138Z" fill="#3F3D56"/>
<path d="M11 22C17.0751 22 22 17.0751 22 11C22 4.92487 17.0751 0 11 0C4.92487 0 0 4.92487 0 11C0 17.0751 4.92487 22 11 22Z" fill="#E6E6E6"/>
<path d="M11 85C17.0751 85 22 80.0751 22 74C22 67.9249 17.0751 63 11 63C4.92487 63 0 67.9249 0 74C0 80.0751 4.92487 85 11 85Z" fill="#E6E6E6"/>
<path d="M11 148C17.0751 148 22 143.075 22 137C22 130.925 17.0751 126 11 126C4.92487 126 0 130.925 0 137C0 143.075 4.92487 148 11 148Z" fill="#E6E6E6"/>
<path d="M266 12H45C44.7348 12 44.4804 11.8946 44.2929 11.7071C44.1054 11.5196 44 11.2652 44 11C44 10.7348 44.1054 10.4804 44.2929 10.2929C44.4804 10.1054 44.7348 10 45 10H266C266.265 10 266.52 10.1054 266.707 10.2929C266.895 10.4804 267 10.7348 267 11C267 11.2652 266.895 11.5196 266.707 11.7071C266.52 11.8946 266.265 12 266 12Z" fill="#E6E6E6"/>
<path d="M266 75H45C44.7348 75 44.4804 74.8946 44.2929 74.7071C44.1054 74.5196 44 74.2652 44 74C44 73.7348 44.1054 73.4804 44.2929 73.2929C44.4804 73.1054 44.7348 73 45 73H266C266.265 73 266.52 73.1054 266.707 73.2929C266.895 73.4804 267 73.7348 267 74C267 74.2652 266.895 74.5196 266.707 74.7071C266.52 74.8946 266.265 75 266 75Z" fill="#E6E6E6"/>
<path d="M92.5 148C98.5751 148 103.5 143.075 103.5 137C103.5 130.925 98.5751 126 92.5 126C86.4249 126 81.5 130.925 81.5 137C81.5 143.075 86.4249 148 92.5 148Z" fill="#512C55"/>
<path d="M156 85C162.075 85 167 80.0751 167 74C167 67.9249 162.075 63 156 63C149.925 63 145 67.9249 145 74C145 80.0751 149.925 85 156 85Z" fill="#512C55"/>
<path d="M156 148C162.075 148 167 143.075 167 137C167 130.925 162.075 126 156 126C149.925 126 145 130.925 145 137C145 143.075 149.925 148 156 148Z" fill="#512C55"/>
<path d="M219 22C225.075 22 230 17.0751 230 11C230 4.92487 225.075 0 219 0C212.925 0 208 4.92487 208 11C208 17.0751 212.925 22 219 22Z" fill="#512C55"/>
<path d="M219 85C225.075 85 230 80.0751 230 74C230 67.9249 225.075 63 219 63C212.925 63 208 67.9249 208 74C208 80.0751 212.925 85 219 85Z" fill="#512C55"/>
<path d="M219 148C225.075 148 230 143.075 230 137C230 130.925 225.075 126 219 126C212.925 126 208 130.925 208 137C208 143.075 212.925 148 219 148Z" fill="#512C55"/>
<path d="M696.28 410H257.28C257.014 410 256.76 409.895 256.572 409.707C256.385 409.52 256.28 409.265 256.28 409C256.28 408.735 256.385 408.48 256.572 408.293C256.76 408.105 257.014 408 257.28 408H696.28C696.545 408 696.799 408.105 696.987 408.293C697.174 408.48 697.28 408.735 697.28 409C697.28 409.265 697.174 409.52 696.987 409.707C696.799 409.895 696.545 410 696.28 410Z" fill="#3F3D56"/>
<path d="M325 321.053C324.337 321.018 323.671 321.001 323 321C312.922 321 303.256 325.004 296.13 332.13C289.004 339.256 285 348.922 285 359H325V321.053Z" fill="#512C55"/>
<path d="M333 410C322.66 409.988 312.747 405.876 305.436 398.564C298.124 391.253 294.012 381.34 294 371C294 370.735 294.105 370.48 294.293 370.293C294.48 370.105 294.735 370 295 370H334V333.053C334 332.917 334.028 332.783 334.081 332.658C334.135 332.533 334.213 332.421 334.312 332.328C334.409 332.233 334.525 332.16 334.653 332.113C334.78 332.066 334.916 332.046 335.052 332.054C345.203 332.589 354.745 337.066 361.644 344.533C368.543 351.999 372.254 361.864 371.987 372.026C371.719 382.188 367.494 391.845 360.212 398.938C352.93 406.031 343.166 410 333 410ZM296.013 372C296.207 379.145 298.466 386.081 302.516 391.969C306.567 397.858 312.237 402.447 318.841 405.182C325.444 407.918 332.698 408.682 339.727 407.382C346.755 406.083 353.257 402.775 358.446 397.86C363.635 392.945 367.289 386.631 368.966 379.684C370.644 372.736 370.273 365.451 367.899 358.709C365.525 351.967 361.249 346.058 355.588 341.694C349.928 337.331 343.124 334.7 336 334.121V371C336 371.265 335.895 371.52 335.707 371.707C335.52 371.895 335.265 372 335 372H296.013Z" fill="#3F3D56"/>
</g>
<defs>
<clipPath id="clip0_0_1">
<rect width="697.28" height="410" fill="white"/>
</clipPath>
</defs>
</svg>
